<svg xmlns="http://www.w3.org/2000/svg" viewBox="100 175 236 57" fill="#ffffff" role="img" aria-label="Yadegar"><path d="M 103 178.407 C 103 178.630, 105.925 184.713, 109.500 191.925 L 116 205.036 116 214.896 C 116 222.407, 115.645 225.049, 114.511 225.991 C 112.196 227.912, 113.435 228.635, 119.464 228.879 C 126.327 229.156, 127.495 228.545, 125.511 225.712 C 124.428 224.166, 124 220.940, 124 214.322 L 124 205.089 130.240 192.294 C 133.673 185.257, 136.635 179.162, 136.824 178.750 C 137.012 178.338, 134.421 178, 131.064 178 C 125.054 178, 124.971 178.038, 125.590 180.501 C 126.198 182.923, 121.409 196, 119.914 196 C 118.682 196, 114 184.223, 114 181.125 C 114 178.004, 113.993 178, 108.500 178 C 105.475 178, 103 178.183, 103 178.407 M 143.662 181.306 C 143.995 183.359, 142.989 189.324, 141.005 197.056 C 139.248 203.900, 137.119 212.425, 136.272 216 C 135.426 219.575, 133.900 223.565, 132.881 224.868 C 131.861 226.170, 131.273 227.632, 131.573 228.118 C 132.191 229.118, 143.329 229.338, 144.298 228.369 C 144.645 228.021, 144.270 226.796, 143.465 225.646 C 142.659 224.496, 142 223.076, 142 222.490 C 142 221.443, 154.083 214, 155.784 214 C 156.264 214, 157.192 216.318, 157.846 219.152 C 158.854 223.518, 158.803 224.560, 157.515 225.983 C 155.356 228.369, 156.527 229, 163.108 229 C 168.645 229, 171.234 227.881, 168.955 226.472 C 167.339 225.474, 166.312 222.262, 160.992 201.568 C 157.655 188.590, 156.408 182.106, 157.027 180.950 C 158.374 178.432, 157.329 178, 149.896 178 L 143.126 178 143.662 181.306 M 172 178.941 C 172 179.459, 172.450 180.160, 173 180.500 C 173.617 180.882, 174 189.491, 174 203 C 174 216.509, 173.617 225.118, 173 225.500 C 172.450 225.840, 172 226.803, 172 227.641 C 172 228.941, 173.837 229.115, 184.583 228.832 C 195.661 228.540, 197.335 228.268, 198.583 226.559 C 199.701 225.028, 200 220.118, 200 203.309 C 200 176.442, 200.985 178, 184 178 C 177.168 178, 172 178.405, 172 178.941 M 204.643 179.750 C 206.007 182.535, 206.287 223.950, 204.952 225.557 C 204.334 226.303, 204.118 227.382, 204.473 227.956 C 205.164 229.074, 225.669 229.448, 228.418 228.393 C 229.678 227.910, 230 226.160, 230 219.801 L 230 211.816 226.750 213.707 C 224.328 215.116, 223.420 216.413, 223.187 218.799 C 222.886 221.872, 222.696 222, 218.437 222 L 214 222 214 217.017 C 214 212.042, 214.008 212.030, 219 209.500 C 223.739 207.099, 224 206.758, 224 202.983 C 224 200.792, 223.702 199, 223.338 199 C 222.974 199, 220.724 200.144, 218.338 201.542 L 214 204.084 214 193.987 L 214 183.890 218.750 184.195 L 223.500 184.500 223.809 188.772 L 224.117 193.044 227.059 191.306 C 230.372 189.349, 230.175 189.706, 230.532 185 C 231.072 177.886, 231.294 178, 216.826 178 C 204.747 178, 203.849 178.129, 204.643 179.750 M 237.750 179.080 C 236.164 180.004, 236 182.246, 236 203.027 L 236 225.954 238.487 227.583 C 240.400 228.837, 242.801 229.130, 248.885 228.854 C 260.427 228.330, 261 227.618, 261 213.814 C 261 201.200, 260.467 200.489, 253.784 204.176 C 250.012 206.257, 249.500 206.955, 249.500 210.020 C 249.500 212.780, 249.862 213.439, 251.250 213.206 C 252.703 212.962, 253 213.683, 253 217.456 L 253 222 248 222 L 243 222 243 203 L 243 184 248 184 L 253 184 253 189 C 253 194.581, 253.760 195.019, 258.096 191.932 C 260.544 190.189, 261 189.177, 261 185.489 C 261 179.230, 258.846 177.992, 248.027 178.030 C 243.337 178.047, 238.713 178.519, 237.750 179.080 M 274.556 181.750 C 274.953 184.317, 274.135 189.287, 271.966 197.500 C 270.223 204.100, 268.108 212.425, 267.268 216 C 266.427 219.575, 265.123 223.388, 264.370 224.473 C 261.875 228.066, 262.659 228.857, 268.711 228.857 C 275.703 228.857, 276.435 228.460, 274.511 225.712 C 273.680 224.526, 273 223.021, 273 222.369 C 273 220.810, 286.070 213.644, 287.003 214.691 C 287.399 215.136, 288.182 217.389, 288.742 219.698 C 289.525 222.923, 289.449 224.341, 288.416 225.817 C 286.573 228.448, 287.473 229, 293.608 229 C 299.379 229, 300.999 227.791, 298.719 225.187 C 297.906 224.259, 295.873 218.100, 294.201 211.500 C 292.529 204.900, 290.239 195.997, 289.112 191.715 C 287.940 187.261, 287.318 182.662, 287.657 180.965 L 288.250 178 281.113 178 L 273.976 178 274.556 181.750 M 301 178.878 C 301 179.360, 301.675 180.315, 302.500 181 C 303.748 182.035, 304 185.835, 304 203.573 C 304 222.825, 303.830 225.001, 302.250 225.932 C 299.587 227.501, 302.438 228.966, 308.191 228.985 C 313.034 229, 315.056 227.656, 313.113 225.713 C 312.501 225.101, 312 222.016, 312 218.857 C 312 214.072, 312.367 212.856, 314.201 211.572 C 316.334 210.078, 316.459 210.176, 318.273 214.765 C 319.303 217.369, 320.258 221.525, 320.395 224 L 320.646 228.500 325.966 228.807 C 329.152 228.991, 331.730 228.640, 332.393 227.932 C 333.208 227.062, 333.148 226.622, 332.167 226.264 C 330.768 225.754, 328.044 220.089, 324.947 211.248 L 323.106 205.996 325.926 204.538 C 329.397 202.743, 329.969 200.731, 329.986 190.250 C 330.006 178.335, 329.556 178, 313.500 178 C 306.625 178, 301 178.395, 301 178.878 M 182 203 L 182 222 187 222 L 192 222 192 203 L 192 184 187 184 L 182 184 182 203 M 312 194.500 C 312 200.275, 312.256 205, 312.570 205 C 312.883 205, 315.133 203.628, 317.570 201.952 L 322 198.904 322 191.452 L 322 184 317 184 L 312 184 312 194.500 M 150.086 190.268 C 150.039 190.691, 149.154 194.291, 148.119 198.268 C 147.085 202.246, 145.971 206.965, 145.643 208.755 L 145.048 212.009 149.901 209.550 L 154.753 207.091 153.386 201.296 C 151.754 194.379, 150.205 189.203, 150.086 190.268 M 280.208 193.500 C 278.288 200.264, 275.883 211.216, 276.239 211.572 C 276.425 211.758, 278.472 210.780, 280.788 209.398 C 285.514 206.580, 285.552 206.367, 283.090 196.500 L 281.343 189.500 280.208 193.500"/></svg>
