<svg xmlns="http://www.w3.org/2000/svg" viewBox="13 13 578 141" fill="#ffffff" fill-rule="evenodd" role="img" aria-label="Yadegar"><path d="M 20.694 20.640 C 19.549 21.785, 19.859 22.550, 23.118 26.612 C 26.491 30.818, 28.092 34.113, 43.087 67.712 L 53 89.925 53 113.368 L 53 136.811 49.500 141 C 47.575 143.305, 46.251 145.597, 46.559 146.095 C 46.866 146.593, 53.815 147, 62 147 C 70.185 147, 77.134 146.593, 77.441 146.095 C 77.749 145.597, 76.425 143.305, 74.500 141 L 71 136.811 71 113.296 L 71 89.781 84.168 60.819 C 91.410 44.890, 98.831 29.977, 100.658 27.679 C 106.512 20.316, 106.076 20, 90.059 20 C 82.391 20, 75.874 20.394, 75.576 20.877 C 75.278 21.359, 75.713 24.039, 76.543 26.833 C 77.997 31.728, 77.960 32.141, 75.519 38.206 C 71.128 49.121, 62.523 67.996, 61.939 67.998 C 61.631 67.999, 58.089 60.299, 54.069 50.888 C 47.302 35.046, 46.813 33.431, 47.486 29.138 C 48.972 19.658, 50.206 20.535, 34.944 20.223 C 27.488 20.071, 21.075 20.258, 20.694 20.640 M 117.399 21.403 C 117.103 22.175, 117.792 24.632, 118.930 26.863 C 120.069 29.095, 121 31.617, 121 32.468 C 121 34.110, 104.901 101.574, 100.470 118.500 C 99.030 124, 97.435 130.125, 96.925 132.111 C 96.415 134.096, 94.428 137.696, 92.509 140.111 C 90.590 142.525, 89.015 145.063, 89.010 145.750 C 89.002 146.696, 92.750 147, 104.441 147 C 112.934 147, 120.109 146.633, 120.387 146.184 C 120.664 145.735, 119.556 143.372, 117.923 140.934 C 115.670 137.568, 115.021 135.558, 115.228 132.589 L 115.500 128.677 131.500 119.852 C 140.300 114.998, 148.041 111.021, 148.703 111.013 C 150.001 110.999, 150.482 112.456, 154.019 127.141 L 156.341 136.782 153.171 140.785 C 151.427 142.986, 150 145.286, 150 145.894 C 150 146.654, 154.842 147, 165.500 147 C 176.241 147, 181 146.657, 181 145.884 C 181 145.270, 179.502 142.683, 177.670 140.134 C 175.839 137.585, 173.814 134.150, 173.170 132.500 C 171.696 128.722, 150.330 41.380, 149.459 35.576 C 148.960 32.246, 149.301 30.331, 150.977 27.044 C 154.527 20.087, 154.330 20, 135 20 C 121.280 20, 117.832 20.275, 117.399 21.403 M 188.380 21.452 C 188.007 22.425, 189.143 24.522, 191.390 27.010 L 195 31.006 195 83.408 L 195 135.811 191.500 140 C 185.320 147.397, 184.184 147.118, 219.083 146.791 L 250.166 146.500 253.083 143.234 L 256 139.968 255.985 84.734 C 255.969 25.348, 256.077 26.608, 250.679 22.596 C 247.989 20.597, 246.492 20.486, 218.419 20.194 C 192.464 19.925, 188.909 20.074, 188.380 21.452 M 267.371 21.477 C 267.043 22.331, 268.320 24.725, 270.402 27.157 L 274 31.360 274 83.585 L 274 135.811 270.500 140 C 264.405 147.295, 263.227 147, 298.429 147 C 325.852 147, 330.060 146.797, 331.451 145.406 C 332.813 144.044, 333.005 141.181, 332.772 125.669 C 332.454 104.454, 332.671 104.781, 322.856 110.777 L 316.500 114.659 316.246 121.580 C 315.795 133.847, 316.778 133, 302.981 133 L 291 133 291 119.623 L 291 106.246 300.750 100.485 C 317.704 90.466, 317 91.289, 317 81.508 C 317 76.894, 316.609 72.876, 316.131 72.581 C 315.652 72.285, 310.365 75.014, 304.381 78.645 C 298.396 82.277, 292.930 85.468, 292.233 85.737 C 291.226 86.127, 291.021 80.917, 291.233 60.364 L 291.500 34.500 302.920 34.216 C 311.383 34.005, 314.550 34.264, 315.154 35.216 C 315.603 35.922, 315.976 40.888, 315.985 46.250 C 315.998 55.040, 316.181 56, 317.837 56 C 319.615 56, 330.745 48.700, 332.235 46.557 C 332.639 45.976, 332.976 40.470, 332.985 34.321 C 332.997 25.478, 332.672 22.815, 331.429 21.571 C 329.134 19.276, 268.249 19.186, 267.371 21.477 M 353.313 21.102 C 351.560 21.610, 349.198 23.205, 348.063 24.647 C 346.034 27.226, 346 28.211, 346 83.619 L 346 139.968 348.918 143.234 L 351.836 146.500 375.532 146.500 L 399.229 146.500 402.614 142.583 L 406 138.667 406 110.302 C 406 87.489, 405.737 81.836, 404.657 81.422 C 403.306 80.904, 386.636 87.698, 382.318 90.527 C 380.179 91.929, 380 92.739, 380 101.023 C 380 106.624, 380.395 110, 381.050 110 C 381.627 110, 383.435 109.309, 385.068 108.465 C 388.991 106.436, 389.136 106.928, 388.785 121.061 L 388.500 132.500 376 132.500 L 363.500 132.500 363.500 83.500 L 363.500 34.500 376 34.500 L 388.500 34.500 389 47.489 C 389.598 63.034, 389.776 63.187, 399.380 56.473 L 406 51.845 406 40.327 C 406 27.297, 404.681 24.018, 398.383 21.387 C 394.518 19.772, 358.694 19.546, 353.313 21.102 M 439.521 20.966 C 439.193 21.497, 439.841 23.729, 440.962 25.926 C 442.083 28.123, 442.997 31.176, 442.994 32.710 C 442.987 35.848, 438.716 54.296, 426.884 102.286 C 419.123 133.766, 418.644 135.271, 414.857 140.062 C 412.688 142.806, 411.184 145.489, 411.516 146.025 C 412.347 147.370, 443 147.325, 443 145.979 C 443 145.417, 441.836 143.199, 440.414 141.050 C 438.992 138.901, 437.592 135.375, 437.302 133.214 L 436.775 129.284 453.480 120.071 C 462.668 115.003, 470.718 111.062, 471.370 111.312 C 472.642 111.800, 478 131.145, 478 135.251 C 478 136.612, 476.657 139.415, 475.015 141.482 C 473.373 143.548, 472.274 145.635, 472.574 146.119 C 473.267 147.240, 502.706 147.285, 503.398 146.166 C 503.681 145.707, 502.141 142.972, 499.975 140.089 C 497.808 137.206, 495.594 133.194, 495.055 131.173 C 492.412 121.278, 475.897 54.082, 473.637 44.027 L 471.058 32.554 473.522 27.171 C 474.878 24.210, 475.738 21.385, 475.434 20.894 C 474.678 19.670, 440.279 19.739, 439.521 20.966 M 507.667 20.667 C 506.513 21.820, 506.906 22.698, 510.500 27 L 514 31.189 514 83.518 L 514 135.847 510.470 140.471 C 508.529 143.014, 507.206 145.524, 507.529 146.048 C 507.860 146.582, 514.674 147, 523.059 147 C 539.947 147, 540.366 146.762, 534.750 140.371 C 531.547 136.726, 531.495 136.508, 531.162 125.255 C 530.976 118.976, 531.095 112.759, 531.425 111.441 C 532.097 108.767, 542.777 101.328, 544.004 102.680 C 544.836 103.596, 555.385 133.016, 556.357 137.129 C 556.791 138.969, 556.361 140.543, 554.924 142.370 C 553.794 143.806, 553.151 145.435, 553.494 145.990 C 554.345 147.367, 582.671 147.341, 583.523 145.962 C 583.876 145.392, 582.503 143.085, 580.472 140.837 C 575.909 135.786, 573.694 130.830, 566.166 108.820 L 560.232 91.475 566.708 87.010 C 570.269 84.555, 573.817 81.321, 574.592 79.823 C 575.688 77.704, 576 71.796, 576 53.198 C 576 29.961, 575.936 29.201, 573.715 25.898 C 572.410 23.956, 569.945 21.988, 567.965 21.306 C 564.230 20.020, 508.900 19.433, 507.667 20.667 M 212.667 34.667 C 212.300 35.033, 212 57.308, 212 84.167 L 212 133 224.300 133 C 232.533 133, 236.997 132.603, 237.800 131.800 C 239.528 130.072, 239.528 36.928, 237.800 35.200 C 236.514 33.914, 213.899 33.435, 212.667 34.667 M 531.667 34.667 C 530.673 35.660, 530.860 88.795, 531.859 89.413 C 533.045 90.146, 552.869 77.556, 556.250 73.923 L 559 70.968 559 53.684 C 559 41.574, 558.641 36.041, 557.800 35.200 C 556.513 33.913, 532.902 33.431, 531.667 34.667 M 133.618 48.750 C 131.835 54.793, 120.951 106.284, 121.369 106.702 C 121.650 106.984, 127.319 104.183, 133.967 100.478 C 142.994 95.446, 145.935 93.331, 145.588 92.121 C 144.981 90.002, 136 48.243, 136 47.540 C 136 46.205, 134.082 47.180, 133.618 48.750 M 449.747 76.750 C 446.144 93.113, 443.335 106.646, 443.505 106.824 C 444.245 107.599, 468 94.147, 468 92.952 C 468 91.962, 459.140 51.162, 458.401 48.750 C 458.106 47.788, 457.512 47, 457.081 47 C 456.650 47, 453.350 60.387, 449.747 76.750"/></svg>
